<?xml version="1.0" encoding="UTF-8" standalone="no"?>
<svg
   xmlns="http://www.w3.org/2000/svg"
   x="0"
   y="0"
   viewBox="0 0 1500.0705 551.74951"
   xml:space="preserve"
   width="1000.047"
   height="367.83301"><style
     id="style29">.st0{fill:#4c4c4c}</style><path
     d="M 617.27056,300.01419 V 143.68496 h 65.52034 v 158.62816 c 0,26.43806 13.79375,43.68025 45.97918,43.68025 29.88647,0 44.82971,-18.39168 44.82971,-44.8297 V 143.68496 h 65.52034 v 156.32923 c 0,60.92241 -36.78336,97.70576 -110.35005,97.70576 -74.71618,1.14947 -111.49952,-35.63387 -111.49952,-97.70576 z M 869.00659,203.4579 h 58.62346 v 26.43802 h 1.14948 c 13.79376,-20.69064 32.18542,-31.03596 58.62347,-31.03596 41.3812,0 65.5204,29.88649 65.5204,72.41722 V 394.27152 H 992.00091 V 282.77199 c 0,-19.54115 -10.34533,-33.33491 -29.88647,-33.33491 -19.54115,0 -33.33491,17.2422 -33.33491,40.23178 V 394.27152 H 867.8571 V 203.4579 Z m 214.95271,-74.71619 h 60.9224 v 49.42762 h -60.9224 z m 0,74.71619 h 60.9224 v 189.66414 h -60.9224 z m 108.051,140.23651 v -90.80888 h -25.2884 V 203.4579 h 25.2884 v -59.77294 h 58.6235 v 59.77294 h 34.4844 v 49.42763 h -34.4844 v 78.1646 c 0,14.94324 8.0464,18.39167 20.6907,18.39167 h 13.7937 v 43.68024 c -5.7474,1.14948 -17.2422,3.44842 -33.3349,3.44842 -34.4844,0 -59.773,-11.4948 -59.773,-52.87605 z m 131.0408,65.52032 h 20.6906 c 17.2422,0 25.2885,-6.89687 25.2885,-19.54114 0,-8.04636 -3.4484,-19.54115 -11.4948,-39.08231 l -56.3245,-145.9839 h 63.2214 l 25.2885,80.46356 c 5.7474,18.39167 11.4949,43.68024 11.4949,43.68024 h 1.1494 c 0,0 5.7475,-25.28857 11.4948,-43.68024 l 25.2886,-80.46356 h 60.9223 l -65.5202,191.96308 c -14.9433,44.82971 -33.3349,59.77296 -71.2677,59.77296 h -39.0824 z"
     id="path31" /><path
     class="st0"
     d="M 488.52882,386.22515 V 128.74171 L 265.52979,0 v 98.855246 l 87.36045,50.577104 c 3.44845,2.29896 3.44845,6.89688 0,8.04635 l -103.45316,59.77295 c -3.44844,2.29896 -6.89689,1.14948 -9.19585,0 L 136.78807,157.4787 c -3.44844,-1.14947 -3.44844,-6.89687 0,-8.04635 L 224.14852,98.855246 V 0 L 0,128.74171 v 257.48344 -1.14949 1.14949 L 85.061491,336.79752 V 235.64333 c 0,-3.44845 4.597919,-5.74741 6.896877,-4.59792 l 103.453152,59.77294 c 3.44844,2.29895 4.59793,4.59791 4.59793,8.04635 v 119.54588 c 0,3.44844 -4.59793,5.7474 -6.89688,4.5979 l -87.36044,-50.57708 -85.061496,49.42762 222.999036,129.8912 222.99906,-128.74174 -85.0615,-49.4276 -87.36044,50.5771 c -3.44844,2.29895 -6.89689,0 -6.89689,-4.59792 V 300.01419 c 0,-3.44845 2.29896,-6.89689 4.59791,-8.04638 l 103.45316,-59.77293 c 3.44845,-2.29896 6.89689,0 6.89689,4.59792 v 101.15421 z"
     id="path33" /><path
     d="m 243.68967,551.75022 222.99906,-128.74174 -85.0615,-49.4276 -87.36044,50.5771 c -3.44844,2.29895 -6.89689,0 -6.89689,-4.59792 V 300.01419 c 0,-3.44845 2.29896,-6.89689 4.59791,-8.04638 l 103.45316,-59.77293 c 3.44845,-2.29896 6.89689,0 6.89689,4.59792 v 101.15421 l 85.0615,49.42763 V 128.74171 L 243.68967,270.12772 Z"
     id="path35" /><path
     d="m 265.52979,0 v 98.855246 l 87.36045,50.577104 c 3.44845,2.29896 3.44845,6.89688 0,8.04635 l -103.45316,59.77295 c -3.44844,2.29896 -6.89689,1.14948 -9.19585,0 L 136.78807,157.4787 c -3.44844,-1.14947 -3.44844,-6.89687 0,-8.04635 L 224.14852,98.855246 V 0 L 0,128.74171 243.68967,270.12772 487.37936,128.74171 Z"
     fill="#808080"
     id="path37" /><path
     class="st0"
     d="M 194.26206,424.15798 106.9016,373.58088 21.840113,423.00848 244.83916,551.75022 V 270.12772 L 0,128.74171 v 257.48344 -1.14949 1.14949 L 85.061491,336.79752 V 235.64333 c 0,-3.44845 4.597919,-5.74741 6.896877,-4.59792 l 103.453152,59.77294 c 3.44844,2.29895 4.59793,4.59791 4.59793,8.04635 v 119.54588 c 1.14949,4.5979 -2.29895,8.04635 -5.74739,5.7474 z"
     id="path39" /></svg>